<?xml version="1.0" encoding="UTF-8" standalone="no"?>
<!-- Created with Inkscape (http://www.inkscape.org/) -->

<svg
   width="307.52747mm"
   height="227.18536mm"
   viewBox="0 0 307.52747 227.18536"
   version="1.1"
   id="svg5"
   inkscape:version="1.1.2 (b8e25be833, 2022-02-05)"
   sodipodi:docname="header2.svg"
   xmlns:inkscape="http://www.inkscape.org/namespaces/inkscape"
   xmlns:sodipodi="http://sodipodi.sourceforge.net/DTD/sodipodi-0.dtd"
   xmlns="http://www.w3.org/2000/svg"
   xmlns:svg="http://www.w3.org/2000/svg">
  <sodipodi:namedview
     id="namedview7"
     pagecolor="#505050"
     bordercolor="#eeeeee"
     borderopacity="1"
     inkscape:pageshadow="0"
     inkscape:pageopacity="0"
     inkscape:pagecheckerboard="0"
     inkscape:document-units="mm"
     showgrid="false"
     fit-margin-top="0"
     fit-margin-left="0"
     fit-margin-right="0"
     fit-margin-bottom="0"
     inkscape:zoom="0.7166772"
     inkscape:cx="581.15425"
     inkscape:cy="429.76112"
     inkscape:window-width="1620"
     inkscape:window-height="923"
     inkscape:window-x="66"
     inkscape:window-y="0"
     inkscape:window-maximized="0"
     inkscape:current-layer="layer1" />
  <defs
     id="defs2">
    <clipPath
       clipPathUnits="userSpaceOnUse"
       id="clipPath31">
      <path
         d="M 0,1080 H 1920 V 0 H 0 Z"
         id="path29" />
    </clipPath>
    <clipPath
       clipPathUnits="userSpaceOnUse"
       id="clipPath63">
      <path
         d="M 608.793,0 H 1919.999 V 337.909 H 608.793 Z"
         id="path61" />
    </clipPath>
    <clipPath
       clipPathUnits="userSpaceOnUse"
       id="clipPath119">
      <path
         d="M 0,1080 H 1920 V 0 H 0 Z"
         id="path117" />
    </clipPath>
    <clipPath
       clipPathUnits="userSpaceOnUse"
       id="clipPath315">
      <path
         d="m 1404.24,589.819 c -5.37,1.101 -10.929,1.681 -16.63,1.681 v 0 h -19.24 -19.24 c -5.7,0 -11.26,-0.58 -16.63,-1.681 v 0 c -15.61,4.031 -46.639,2.691 -58.44,-0.599 v 0 c -25.09,-6.99 -52.32,-37.36 -64.47,-51.67 v 0 c 20.88,-6.96 39.87,-18.72 57.129,-32.349 v 0 l 5.811,-102.811 c 22.06,-4.569 56.78,-7.52 95.84,-7.52 v 0 c 39.06,0 73.78,2.951 95.84,7.52 v 0 l 5.81,102.811 c 17.261,13.629 36.25,25.389 57.131,32.349 v 0 c -12.151,14.31 -39.382,44.68 -64.471,51.67 v 0 c -6.658,1.856 -19.442,3.092 -32.121,3.092 v 0 c -9.79,0 -19.517,-0.736 -26.319,-2.493"
         id="path313" />
    </clipPath>
    <clipPath
       clipPathUnits="userSpaceOnUse"
       id="clipPath335">
      <path
         d="M 0,1080 H 1920 V 0 H 0 Z"
         id="path333" />
    </clipPath>
    <clipPath
       clipPathUnits="userSpaceOnUse"
       id="clipPath355">
      <path
         d="m 1344.468,613.652 -2.033,-28.958 h 55.329 l -2.033,28.958 z"
         id="path353" />
    </clipPath>
    <clipPath
       clipPathUnits="userSpaceOnUse"
       id="clipPath367">
      <path
         d="M 0,1080 H 1920 V 0 H 0 Z"
         id="path365" />
    </clipPath>
    <clipPath
       clipPathUnits="userSpaceOnUse"
       id="clipPath459">
      <path
         d="M 0,1080 H 1920 V 0 H 0 Z"
         id="path457" />
    </clipPath>
    <clipPath
       clipPathUnits="userSpaceOnUse"
       id="clipPath475">
      <path
         d="M 0,1080 H 1920 V 0 H 0 Z"
         id="path473" />
    </clipPath>
  </defs>
  <g
     inkscape:label="Layer 1"
     inkscape:groupmode="layer"
     id="layer1"
     style="display:inline"
     transform="translate(53.299502,-29.002297)">
    <g
       id="g2007"
       transform="translate(-21.444043,20.01444)">
      <g
         id="g1686"
         transform="translate(-139.02558,110.38092)">
        <g
           id="g113"
           transform="matrix(0.35277777,0,0,-0.35277777,-221.79662,197.29061)">
          <g
             id="g115"
             clip-path="url(#clipPath119)">
            <g
               id="g121"
               transform="translate(1370.0723,527.8574)">
              <path
                 d="m 0,0 c -87.551,0 -158.777,71.227 -158.777,158.777 0,87.551 71.226,158.778 158.777,158.778 87.551,0 158.777,-71.227 158.777,-158.778 C 158.777,71.227 87.551,0 0,0 Z"
                 style="fill:none;stroke:#ffffff;stroke-width:2.5;stroke-linecap:butt;stroke-linejoin:miter;stroke-miterlimit:10;stroke-dasharray:none;stroke-opacity:1"
                 id="path123" />
            </g>
            <g
               id="g125"
               transform="translate(1500.2568,686.6348)">
              <path
                 d="m 0,0 c 0,-71.898 -58.285,-130.184 -130.185,-130.184 -71.898,0 -130.183,58.286 -130.183,130.184 0,71.899 58.285,130.184 130.183,130.184 C -58.285,130.184 0,71.899 0,0 Z"
                 style="fill:none;stroke:#ffffff;stroke-width:2.5;stroke-linecap:butt;stroke-linejoin:miter;stroke-miterlimit:10;stroke-dasharray:none;stroke-opacity:1"
                 id="path127" />
            </g>
            <g
               id="g129"
               transform="translate(1608.6885,549.1216)">
              <path
                 d="m 0,0 c 9.653,3.761 19.903,-7.625 23.302,-15.267 5.129,-11.533 1.719,-24.409 -3.464,-35.282 -9.329,2.716 -19.415,8.041 -24.225,16.86 C -9.116,-25.019 -12.057,-4.697 0,0"
                 style="fill:#008b94;fill-opacity:1;fill-rule:nonzero;stroke:none"
                 id="path131" />
            </g>
            <g
               id="g133"
               transform="translate(1682.4434,498.1855)">
              <path
                 d="m 0,0 c 0.101,10.592 -14.642,16.087 -23.124,16.403 -11.74,0.438 -23.878,-6.734 -30.794,-16.016 6.716,-7.62 16.394,-13.526 26.363,-15.572 C -18.217,-17.1 -0.116,-12.202 0,0"
                 style="fill:#008b94;fill-opacity:1;fill-rule:nonzero;stroke:none"
                 id="path135" />
            </g>
            <g
               id="g137"
               transform="translate(1575.1631,492.8975)">
              <path
                 d="m 0,0 c 11.367,9.417 26.017,-7.669 29.523,-17.167 2.555,-6.92 3.044,-14.389 2.802,-21.688 -0.043,-1.295 0.453,-6.406 -0.58,-7.321 -0.709,-0.629 -4.216,0.051 -5.06,0.107 -12.499,0.828 -25.178,5.711 -30.341,18.006 C -7.064,-19.948 -7.762,-6.126 0,0"
                 style="fill:#008b94;fill-opacity:1;fill-rule:nonzero;stroke:none"
                 id="path139" />
            </g>
            <g
               id="g141"
               transform="translate(1657.7432,458.042)">
              <path
                 d="m 0,0 c -3.553,9.596 -19.098,12.822 -27.846,11.032 -6.004,-1.229 -10.972,-4.52 -15.012,-9.048 -1.836,-2.057 -3.539,-4.308 -4.916,-6.699 -0.628,-1.088 -3.371,-5.223 -2.997,-6.43 0.62,-1.996 7.956,-3.912 9.793,-4.509 5.364,-1.743 11.069,-2.699 16.714,-2.376 5.863,0.334 11.707,2.201 16.703,5.3 C -3.696,-10.333 1.912,-5.153 0,0"
                 style="fill:#008b94;fill-opacity:1;fill-rule:nonzero;stroke:none"
                 id="path143" />
            </g>
            <g
               id="g145"
               transform="translate(1557.4453,427.8301)">
              <path
                 d="M 0,0 C 6.415,7.979 19.73,2.877 26.163,-2.196 36.441,-10.302 40.642,-24.205 41.252,-36.85 31.16,-39.22 18.847,-39.147 9.987,-33.128 1.162,-27.132 -8.341,-9.947 0,0"
                 style="fill:#008b94;fill-opacity:1;fill-rule:nonzero;stroke:none"
                 id="path147" />
            </g>
            <g
               id="g149"
               transform="translate(1646.0752,414.4453)">
              <path
                 d="m 0,0 c -5.46,9.23 -21.829,7.648 -29.79,3.754 -5.937,-2.904 -10.382,-8.136 -13.314,-13.981 -1.312,-2.616 -5.752,-11.546 -3.463,-13.51 1.349,-1.159 5.504,-1.43 7.1,-1.701 3.142,-0.534 6.316,-0.808 9.502,-0.761 6.631,0.096 13.043,1.664 18.715,5.16 C -5.336,-17.393 4.466,-7.924 0,0"
                 style="fill:#008b94;fill-opacity:1;fill-rule:nonzero;stroke:none"
                 id="path151" />
            </g>
            <g
               id="g153"
               transform="translate(1676.2656,568.1055)">
              <path
                 d="m 0,0 c 11.231,-7.756 2.627,-27.491 -4.968,-34.28 -4.847,-4.332 -11.003,-7.033 -17.234,-8.687 -1.235,-0.328 -7.357,-2.464 -8.549,-1.559 -1.485,1.125 -1.522,7.9 -1.66,9.512 -0.594,6.954 0.03,14.268 3.147,20.606 C -25.016,-5.773 -10.361,7.156 0,0"
                 style="fill:#008b94;fill-opacity:1;fill-rule:nonzero;stroke:none"
                 id="path155" />
            </g>
            <g
               id="g157"
               transform="translate(1646.9609,525.6738)">
              <path
                 d="m 0,0 c -9.218,-13.352 -18.957,-26.426 -26.25,-40.958 -7.198,-14.343 -12.216,-29.839 -15.643,-45.499 -7.607,-34.779 -7.65,-69.61 -4.54,-104.881"
                 style="fill:none;stroke:#008b94;stroke-width:2.5;stroke-linecap:round;stroke-linejoin:round;stroke-miterlimit:10;stroke-dasharray:none;stroke-opacity:1"
                 id="path159" />
            </g>
            <g
               id="g161"
               transform="translate(1738.627,499.043)">
              <path
                 d="M 0,0 C 9.933,-2.945 11.052,-18.225 9.053,-26.346 6.036,-38.602 -4.55,-46.686 -15.311,-52.1 c -5.705,7.865 -10.411,18.254 -8.805,28.17 C -22.538,-14.181 -12.405,3.68 0,0"
                 style="fill:#008b94;fill-opacity:1;fill-rule:nonzero;stroke:none"
                 id="path163" />
            </g>
            <g
               id="g165"
               transform="translate(1765.6816,413.5889)">
              <path
                 d="m 0,0 c 6.571,8.308 -1.709,21.686 -8.217,27.135 -9.008,7.542 -22.994,9.314 -34.148,6.219 0.636,-10.137 4.662,-20.735 11.286,-28.461 C -24.875,-2.345 -7.57,-9.569 0,0"
                 style="fill:#008b94;fill-opacity:1;fill-rule:nonzero;stroke:none"
                 id="path167" />
            </g>
            <g
               id="g169"
               transform="translate(1677.6748,475.167)">
              <path
                 d="m 0,0 c 14.754,0.474 15.856,-22.005 12.805,-31.659 -2.223,-7.034 -6.413,-13.236 -11.08,-18.855 -0.828,-0.997 -3.568,-5.339 -4.946,-5.428 -0.945,-0.063 -3.3,2.625 -3.931,3.186 -9.369,8.316 -16.395,19.944 -12.938,32.823 C -17.809,-11.431 -9.888,-0.082 0,0"
                 style="fill:#008b94;fill-opacity:1;fill-rule:nonzero;stroke:none"
                 id="path171" />
            </g>
            <g
               id="g173"
               transform="translate(1721.5596,397.0107)">
              <path
                 d="m 0,0 c 3.075,9.76 -7.229,21.837 -15.239,25.784 -5.497,2.709 -11.442,3.154 -17.408,2.053 -2.712,-0.5 -5.438,-1.234 -7.991,-2.279 -1.163,-0.476 -5.864,-2.062 -6.308,-3.245 -0.735,-1.957 3.887,-7.967 4.973,-9.565 3.169,-4.665 7.092,-8.916 11.75,-12.122 4.837,-3.329 10.6,-5.438 16.447,-6.051 C -9.254,-5.898 -1.647,-5.244 0,0"
                 style="fill:#008b94;fill-opacity:1;fill-rule:nonzero;stroke:none"
                 id="path175" />
            </g>
            <g
               id="g177"
               transform="translate(1623.7939,434.6152)">
              <path
                 d="M 0,0 C 9.96,2.373 17.353,-9.82 19.326,-17.771 22.479,-30.476 17.275,-44.035 10.007,-54.4 0.581,-50.087 -9.104,-42.483 -12.415,-32.297 -15.713,-22.149 -12.688,-2.747 0,0"
                 style="fill:#008b94;fill-opacity:1;fill-rule:nonzero;stroke:none"
                 id="path179" />
            </g>
            <g
               id="g181"
               transform="translate(1685.6182,369.7148)">
              <path
                 d="m 0,0 c 1.344,10.641 -12.56,19.424 -21.236,21.226 -6.471,1.344 -13.191,-0.065 -19.089,-2.886 -2.642,-1.263 -11.623,-5.597 -11.019,-8.553 0.357,-1.741 3.473,-4.503 4.569,-5.696 2.154,-2.346 4.494,-4.508 7.041,-6.425 5.297,-3.987 11.325,-6.68 17.95,-7.394 C -14.876,-10.472 -1.327,-8.998 0,0"
                 style="fill:#008b94;fill-opacity:1;fill-rule:nonzero;stroke:none"
                 id="path183" />
            </g>
            <g
               id="g185"
               transform="translate(1803.6572,472.6221)">
              <path
                 d="m 0,0 c 4.12,-13.013 -14.774,-23.332 -24.937,-24.041 -6.486,-0.452 -13.004,1.187 -18.942,3.7 -1.177,0.498 -7.322,2.563 -7.711,4.008 -0.483,1.8 3.64,7.175 4.52,8.533 3.793,5.859 8.769,11.255 15.117,14.352 C -23.305,10.771 -3.801,12.005 0,0"
                 style="fill:#008b94;fill-opacity:1;fill-rule:nonzero;stroke:none"
                 id="path187" />
            </g>
            <g
               id="g189"
               transform="translate(1754.4951,457.0576)">
              <path
                 d="m 0,0 c -15.468,-4.899 -31.177,-9.261 -45.846,-16.272 -14.479,-6.921 -27.942,-16.089 -40.248,-26.364 -27.328,-22.816 -48.712,-50.311 -67.873,-80.086"
                 style="fill:none;stroke:#008b94;stroke-width:2.5;stroke-linecap:round;stroke-linejoin:round;stroke-miterlimit:10;stroke-dasharray:none;stroke-opacity:1"
                 id="path191" />
            </g>
            <g
               id="g193"
               transform="translate(1128.0508,549.1216)">
              <path
                 d="m 0,0 c -9.653,3.761 -19.902,-7.625 -23.301,-15.267 -5.129,-11.533 -1.72,-24.409 3.464,-35.282 9.329,2.716 19.415,8.041 24.225,16.86 C 9.116,-25.019 12.058,-4.697 0,0"
                 style="fill:#008b94;fill-opacity:1;fill-rule:nonzero;stroke:none"
                 id="path195" />
            </g>
            <g
               id="g197"
               transform="translate(1054.2959,498.1855)">
              <path
                 d="M 0,0 C -0.101,10.592 14.643,16.087 23.125,16.403 34.864,16.841 47.003,9.669 53.918,0.387 47.202,-7.233 37.525,-13.139 27.556,-15.185 18.217,-17.1 0.117,-12.202 0,0"
                 style="fill:#008b94;fill-opacity:1;fill-rule:nonzero;stroke:none"
                 id="path199" />
            </g>
            <g
               id="g201"
               transform="translate(1161.5771,492.8975)">
              <path
                 d="m 0,0 c -11.367,9.417 -26.017,-7.669 -29.523,-17.167 -2.555,-6.92 -3.044,-14.389 -2.802,-21.688 0.043,-1.295 -0.453,-6.406 0.58,-7.321 0.709,-0.629 4.216,0.051 5.06,0.107 12.499,0.828 25.177,5.711 30.34,18.006 C 7.064,-19.948 7.762,-6.126 0,0"
                 style="fill:#008b94;fill-opacity:1;fill-rule:nonzero;stroke:none"
                 id="path203" />
            </g>
            <g
               id="g205"
               transform="translate(1078.9971,458.042)">
              <path
                 d="m 0,0 c 3.552,9.596 19.097,12.822 27.845,11.032 6.004,-1.229 10.973,-4.52 15.013,-9.048 1.836,-2.057 3.539,-4.308 4.916,-6.699 0.627,-1.088 3.37,-5.223 2.997,-6.43 -0.62,-1.996 -7.956,-3.912 -9.793,-4.509 -5.364,-1.743 -11.069,-2.699 -16.715,-2.376 -5.862,0.334 -11.707,2.201 -16.702,5.3 C 3.696,-10.333 -1.912,-5.153 0,0"
                 style="fill:#008b94;fill-opacity:1;fill-rule:nonzero;stroke:none"
                 id="path207" />
            </g>
            <g
               id="g209"
               transform="translate(1179.2939,427.8301)">
              <path
                 d="m 0,0 c -6.415,7.979 -19.729,2.877 -26.163,-2.196 -10.277,-8.106 -14.479,-22.009 -15.088,-34.654 10.092,-2.37 22.405,-2.297 31.265,3.722 C -1.161,-27.132 8.341,-9.947 0,0"
                 style="fill:#008b94;fill-opacity:1;fill-rule:nonzero;stroke:none"
                 id="path211" />
            </g>
            <g
               id="g213"
               transform="translate(1090.665,414.4453)">
              <path
                 d="m 0,0 c 5.459,9.23 21.829,7.648 29.789,3.754 5.937,-2.904 10.383,-8.136 13.315,-13.981 1.312,-2.616 5.752,-11.546 3.462,-13.51 -1.349,-1.159 -5.503,-1.43 -7.1,-1.701 -3.141,-0.534 -6.315,-0.808 -9.501,-0.761 -6.631,0.096 -13.043,1.664 -18.715,5.16 C 5.336,-17.393 -4.467,-7.924 0,0"
                 style="fill:#008b94;fill-opacity:1;fill-rule:nonzero;stroke:none"
                 id="path215" />
            </g>
            <g
               id="g217"
               transform="translate(1060.4746,568.1055)">
              <path
                 d="m 0,0 c -11.231,-7.756 -2.627,-27.491 4.968,-34.28 4.846,-4.332 11.003,-7.033 17.234,-8.687 1.235,-0.328 7.357,-2.464 8.549,-1.559 1.485,1.125 1.522,7.9 1.66,9.512 0.593,6.954 -0.03,14.268 -3.148,20.606 C 25.016,-5.773 10.36,7.156 0,0"
                 style="fill:#008b94;fill-opacity:1;fill-rule:nonzero;stroke:none"
                 id="path219" />
            </g>
            <g
               id="g221"
               transform="translate(1089.7783,525.6738)">
              <path
                 d="m 0,0 c 9.219,-13.352 18.958,-26.426 26.251,-40.958 7.198,-14.343 12.216,-29.839 15.642,-45.499 7.608,-34.779 7.651,-69.61 4.541,-104.881"
                 style="fill:none;stroke:#008b94;stroke-width:2.5;stroke-linecap:round;stroke-linejoin:round;stroke-miterlimit:10;stroke-dasharray:none;stroke-opacity:1"
                 id="path223" />
            </g>
            <g
               id="g225"
               transform="translate(998.1133,499.043)">
              <path
                 d="M 0,0 C -9.933,-2.945 -11.052,-18.225 -9.053,-26.346 -6.036,-38.602 4.55,-46.686 15.31,-52.1 c 5.706,7.865 10.411,18.254 8.806,28.17 C 22.538,-14.181 12.405,3.68 0,0"
                 style="fill:#008b94;fill-opacity:1;fill-rule:nonzero;stroke:none"
                 id="path227" />
            </g>
            <g
               id="g229"
               transform="translate(971.0586,413.5889)">
              <path
                 d="m 0,0 c -6.572,8.308 1.709,21.686 8.217,27.135 9.008,7.542 22.994,9.314 34.147,6.219 C 41.729,23.217 37.702,12.619 31.078,4.893 24.874,-2.345 7.57,-9.569 0,0"
                 style="fill:#008b94;fill-opacity:1;fill-rule:nonzero;stroke:none"
                 id="path231" />
            </g>
            <g
               id="g233"
               transform="translate(1059.0654,475.167)">
              <path
                 d="m 0,0 c -14.754,0.474 -15.856,-22.005 -12.806,-31.659 2.223,-7.034 6.414,-13.236 11.08,-18.855 0.829,-0.997 3.569,-5.339 4.946,-5.428 0.946,-0.063 3.301,2.625 3.932,3.186 9.369,8.316 16.394,19.944 12.938,32.823 C 17.809,-11.431 9.888,-0.082 0,0"
                 style="fill:#008b94;fill-opacity:1;fill-rule:nonzero;stroke:none"
                 id="path235" />
            </g>
            <g
               id="g237"
               transform="translate(1015.1807,397.0107)">
              <path
                 d="m 0,0 c -3.075,9.76 7.229,21.837 15.239,25.784 5.497,2.709 11.442,3.154 17.408,2.053 2.712,-0.5 5.438,-1.234 7.991,-2.279 1.163,-0.476 5.864,-2.062 6.307,-3.245 0.736,-1.957 -3.886,-7.967 -4.972,-9.565 C 38.803,8.083 34.881,3.832 30.223,0.626 25.386,-2.703 19.623,-4.812 13.776,-5.425 9.253,-5.898 1.647,-5.244 0,0"
                 style="fill:#008b94;fill-opacity:1;fill-rule:nonzero;stroke:none"
                 id="path239" />
            </g>
            <g
               id="g241"
               transform="translate(1112.9463,434.6152)">
              <path
                 d="m 0,0 c -9.96,2.373 -17.353,-9.82 -19.326,-17.771 -3.153,-12.705 2.05,-26.264 9.319,-36.629 9.426,4.313 19.111,11.917 22.422,22.103 C 15.712,-22.149 12.688,-2.747 0,0"
                 style="fill:#008b94;fill-opacity:1;fill-rule:nonzero;stroke:none"
                 id="path243" />
            </g>
            <g
               id="g245"
               transform="translate(1051.1221,369.7148)">
              <path
                 d="M 0,0 C -1.345,10.641 12.56,19.424 21.236,21.226 27.707,22.57 34.427,21.161 40.325,18.34 42.966,17.077 51.948,12.743 51.344,9.787 50.986,8.046 47.871,5.284 46.775,4.091 44.621,1.745 42.281,-0.417 39.734,-2.334 34.437,-6.321 28.409,-9.014 21.784,-9.728 14.876,-10.472 1.327,-8.998 0,0"
                 style="fill:#008b94;fill-opacity:1;fill-rule:nonzero;stroke:none"
                 id="path247" />
            </g>
            <g
               id="g249"
               transform="translate(933.0825,472.6221)">
              <path
                 d="m 0,0 c -4.12,-13.013 14.775,-23.332 24.937,-24.041 6.485,-0.452 13.005,1.187 18.942,3.7 1.177,0.498 7.323,2.563 7.711,4.008 0.484,1.8 -3.639,7.175 -4.519,8.533 C 43.278,-1.941 38.301,3.455 31.954,6.552 23.305,10.771 3.801,12.005 0,0"
                 style="fill:#008b94;fill-opacity:1;fill-rule:nonzero;stroke:none"
                 id="path251" />
            </g>
            <g
               id="g253"
               transform="translate(982.2451,457.0576)">
              <path
                 d="m 0,0 c 15.468,-4.899 31.177,-9.261 45.846,-16.272 14.478,-6.921 27.941,-16.089 40.248,-26.364 27.328,-22.816 48.712,-50.311 67.873,-80.086"
                 style="fill:none;stroke:#008b94;stroke-width:2.5;stroke-linecap:round;stroke-linejoin:round;stroke-miterlimit:10;stroke-dasharray:none;stroke-opacity:1"
                 id="path255" />
            </g>
            <g
               id="g257"
               transform="translate(1631.9053,378.3262)">
              <path
                 d="m 0,0 c -29.827,3.903 -54.429,8.361 -82.576,18.794 -20.142,7.466 -40.062,16.005 -57.333,28.944 -18.405,13.789 -33.292,29.288 -47.955,46.912 -9.45,11.36 -34.996,49.427 -37.275,57.063 -6.139,20.574 3.177,43.296 21.94,53.699 10.716,5.941 23.545,7.388 35.315,3.985 9.062,-2.619 16.663,-8.107 23.232,-14.732 16.109,-16.247 51.538,-59.341 55.405,-63.882 6.028,-7.082 11.899,-14.354 19.317,-19.999 C -45.595,92.268 -20.038,75.481 4.011,56.55 14.542,48.259 23.68,41.134 26.414,33.655 30.331,22.941 26.704,10.554 17.252,4.131 12.239,0.726 6.011,-0.746 0,0"
                 style="fill:#ffaf96;fill-opacity:1;fill-rule:nonzero;stroke:none"
                 id="path259" />
            </g>
            <g
               id="g261"
               transform="translate(1610.3643,431.0723)">
              <path
                 d="m 0,0 c -12.681,-0.255 -27.03,-9.086 -33.109,-11.124 -5.385,-1.806 -13.696,0.074 -19.444,-0.129 -8.377,-0.295 -10.859,-16.795 1.275,-19.52 7.046,-1.574 20.928,-0.59 30.836,-0.017 0,0 31.652,-13.841 49.978,-3.644 l 7.402,19.324 z"
                 style="fill:#ffaf96;fill-opacity:1;fill-rule:nonzero;stroke:none"
                 id="path263" />
            </g>
            <g
               id="g265"
               transform="translate(1650.5068,416.9033)">
              <path
                 d="m 0,0 c -0.636,2.127 -1.484,4.157 -2.567,6.072 -1.089,1.89 -2.44,3.703 -4.272,4.875 -1.849,1.151 -3.978,1.902 -6.154,1.887 -2.158,-0.003 -4.342,-0.746 -6.017,-2.069 l -0.002,-0.001 c -0.092,-0.08 -0.234,-0.069 -0.313,0.024 l -0.018,0.024 c -0.915,1.37 -1.975,2.666 -3.122,3.858 -1.162,1.175 -2.415,2.283 -3.846,3.092 -1.417,0.811 -3.018,1.314 -4.642,1.518 -1.628,0.2 -3.29,0.066 -4.87,-0.378 -0.136,-0.038 -0.278,0.042 -0.317,0.179 -0.006,0.021 -0.008,0.043 -0.008,0.064 v 0.003 l 0.307,-0.246 c -2.097,-0.477 -4.08,-1.495 -6,-2.534 -1.921,-1.062 -3.785,-2.23 -5.623,-3.439 -0.027,-0.019 -0.06,-0.032 -0.091,-0.039 -7.581,-1.8 -14.633,-5.242 -21.722,-8.501 -1.786,-0.78 -3.573,-1.65 -5.548,-2.018 -1.952,-0.382 -3.934,-0.409 -5.892,-0.347 -3.92,0.116 -7.803,0.711 -11.679,0.663 -1.911,0.027 -3.719,-0.915 -4.914,-2.395 -1.207,-1.469 -1.921,-3.331 -2.144,-5.23 -0.221,-1.9 -0.012,-3.873 0.747,-5.634 0.373,-0.88 0.869,-1.707 1.477,-2.447 0.621,-0.728 1.35,-1.357 2.149,-1.884 0.803,-0.526 1.691,-0.905 2.599,-1.22 0.92,-0.273 1.867,-0.481 2.828,-0.619 1.921,-0.281 3.867,-0.417 5.813,-0.486 3.895,-0.131 7.799,-0.033 11.697,0.124 0.082,0.004 0.153,-0.06 0.156,-0.143 0.004,-0.08 -0.057,-0.149 -0.136,-0.155 l -0.007,-10e-4 c -3.895,-0.343 -7.8,-0.628 -11.739,-0.681 -1.971,-0.023 -3.949,0.021 -5.951,0.219 -1.001,0.097 -2.011,0.268 -3.049,0.528 -1.021,0.297 -2.026,0.702 -2.96,1.269 -0.929,0.571 -1.793,1.271 -2.537,2.094 -0.732,0.834 -1.336,1.779 -1.799,2.785 -0.938,2.016 -1.247,4.266 -1.059,6.463 0.199,2.198 0.937,4.402 2.389,6.282 0.73,0.931 1.663,1.77 2.782,2.364 0.277,0.156 0.564,0.29 0.866,0.395 0.296,0.123 0.6,0.224 0.914,0.292 0.31,0.084 0.623,0.152 0.941,0.179 0.32,0.042 0.645,0.077 0.885,0.08 4.18,0.146 8.045,-0.38 11.804,-0.393 1.866,-0.02 3.701,0.063 5.319,0.429 1.501,0.303 3.192,1.142 4.929,1.955 3.458,1.672 6.997,3.474 10.655,5.073 3.669,1.585 7.498,2.93 11.506,3.903 l -0.888,-0.38 c 1.882,1.243 3.8,2.45 5.822,3.574 1.011,0.567 2.056,1.1 3.174,1.566 1.124,0.468 2.29,0.906 3.705,1.191 l 0.048,0.01 c 1.431,0.288 2.824,-0.638 3.112,-2.068 0.033,-0.165 0.05,-0.345 0.052,-0.508 v -0.004 l -3.401,2.521 c 1.942,0.51 4.012,0.644 6.007,0.363 1.994,-0.302 3.878,-0.885 5.649,-1.987 1.712,-1.054 3.058,-2.356 4.292,-3.7 1.231,-1.37 2.25,-2.759 3.214,-4.391 l -3.042,0.434 0.004,0.004 c 0.354,0.334 0.567,0.51 0.854,0.734 0.269,0.213 0.551,0.399 0.84,0.569 0.576,0.345 1.18,0.641 1.808,0.891 1.249,0.52 2.624,0.764 3.99,0.765 1.367,0.012 2.731,-0.203 4,-0.607 1.27,-0.419 2.422,-1.036 3.493,-1.735 1.195,-0.798 2.096,-1.794 2.867,-2.802 0.78,-1.005 1.37,-2.088 1.856,-3.185 C 0.146,4.877 0.575,2.5 0.28,0.105 L 0.271,0.022 C 0.261,-0.054 0.191,-0.107 0.115,-0.099 0.06,-0.092 0.015,-0.052 0,0"
                 style="fill:#20204a;fill-opacity:1;fill-rule:nonzero;stroke:none"
                 id="path267" />
            </g>
            <g
               id="g269"
               transform="translate(1104.834,378.3262)">
              <path
                 d="m 0,0 c 29.828,3.903 54.43,8.361 82.577,18.794 20.141,7.466 40.061,16.005 57.333,28.944 18.405,13.789 33.292,29.288 47.954,46.912 9.451,11.36 34.997,49.427 37.276,57.063 6.138,20.574 -3.177,43.296 -21.941,53.699 -10.716,5.941 -23.544,7.388 -35.314,3.985 -9.062,-2.619 -16.663,-8.107 -23.233,-14.732 C 128.543,178.418 93.114,135.324 89.248,130.783 83.219,123.701 77.349,116.429 69.93,110.784 45.596,92.268 20.039,75.481 -4.01,56.55 -14.541,48.259 -23.679,41.134 -26.413,33.655 -30.33,22.941 -26.704,10.554 -17.251,4.131 -12.238,0.726 -6.01,-0.746 0,0"
                 style="fill:#ffaf96;fill-opacity:1;fill-rule:nonzero;stroke:none"
                 id="path271" />
            </g>
            <g
               id="g273"
               transform="translate(1126.376,431.0723)">
              <path
                 d="m 0,0 c 12.681,-0.255 27.03,-9.086 33.109,-11.124 5.384,-1.806 13.696,0.074 19.443,-0.129 8.378,-0.295 10.86,-16.795 -1.275,-19.52 -7.046,-1.574 -20.927,-0.59 -30.836,-0.017 0,0 -31.651,-13.841 -49.977,-3.644 l -7.402,19.324 z"
                 style="fill:#ffaf96;fill-opacity:1;fill-rule:nonzero;stroke:none"
                 id="path275" />
            </g>
            <g
               id="g277"
               transform="translate(1085.9531,417.0088)">
              <path
                 d="m 0,0 c -0.296,2.395 0.135,4.771 1.06,6.982 0.485,1.097 1.075,2.18 1.855,3.186 0.772,1.008 1.671,2.004 2.866,2.802 1.072,0.699 2.223,1.315 3.494,1.734 1.269,0.404 2.633,0.619 3.999,0.608 1.368,-10e-4 2.743,-0.246 3.992,-0.765 0.627,-0.25 1.231,-0.546 1.807,-0.892 0.289,-0.17 0.572,-0.355 0.84,-0.568 0.286,-0.225 0.499,-0.4 0.854,-0.734 l 0.004,-0.004 -3.042,-0.435 c 0.964,1.633 1.983,3.022 3.214,4.392 1.235,1.343 2.58,2.645 4.292,3.7 1.771,1.101 3.656,1.684 5.65,1.986 1.994,0.281 4.064,0.148 6.006,-0.362 L 33.489,19.096 V 19.1 c 0,1.459 1.183,2.641 2.642,2.641 0.174,0 0.343,-0.016 0.507,-0.049 l 0.064,-0.013 c 1.415,-0.285 2.581,-0.724 3.704,-1.192 1.119,-0.466 2.164,-0.999 3.175,-1.565 2.023,-1.124 3.94,-2.331 5.822,-3.574 l -0.887,0.38 c 4.007,-0.973 7.837,-2.319 11.505,-3.904 3.659,-1.598 7.197,-3.4 10.655,-5.072 1.737,-0.814 3.428,-1.652 4.929,-1.955 1.619,-0.366 3.454,-0.449 5.318,-0.43 3.761,0.014 7.625,0.539 11.806,0.394 0.238,-0.003 0.563,-0.038 0.884,-0.08 0.318,-0.028 0.631,-0.095 0.942,-0.179 0.313,-0.068 0.617,-0.169 0.913,-0.292 0.303,-0.106 0.59,-0.239 0.866,-0.396 1.119,-0.593 2.053,-1.432 2.782,-2.364 1.452,-1.88 2.191,-4.084 2.389,-6.281 0.187,-2.197 -0.122,-4.447 -1.06,-6.464 -0.462,-1.006 -1.067,-1.95 -1.798,-2.784 -0.744,-0.823 -1.608,-1.524 -2.537,-2.095 -0.934,-0.566 -1.94,-0.972 -2.96,-1.268 -1.038,-0.26 -2.048,-0.431 -3.048,-0.529 -2.002,-0.198 -3.982,-0.242 -5.952,-0.218 -3.939,0.052 -7.843,0.337 -11.739,0.68 l -0.007,0.001 c -0.082,0.007 -0.143,0.08 -0.135,0.162 0.006,0.08 0.076,0.14 0.155,0.137 3.898,-0.157 7.802,-0.256 11.697,-0.124 1.946,0.068 3.892,0.204 5.813,0.485 0.962,0.139 1.908,0.347 2.829,0.619 0.907,0.316 1.795,0.695 2.598,1.22 0.799,0.528 1.529,1.156 2.15,1.885 0.607,0.739 1.103,1.566 1.476,2.446 0.759,1.762 0.968,3.735 0.747,5.634 -0.223,1.899 -0.937,3.762 -2.144,5.231 -1.195,1.48 -3.003,2.421 -4.914,2.394 C 88.799,2.63 84.917,2.034 80.997,1.919 79.039,1.856 77.058,1.884 75.105,2.266 c -1.976,0.368 -3.761,1.238 -5.548,2.017 -7.088,3.26 -14.142,6.701 -21.722,8.501 -0.033,0.008 -0.065,0.023 -0.092,0.039 -1.837,1.209 -3.702,2.377 -5.622,3.44 -1.92,1.039 -3.902,2.056 -6,2.534 l 0.308,0.247 V 19.04 c -0.002,-0.142 -0.119,-0.255 -0.261,-0.252 -0.022,0 -0.045,0.004 -0.065,0.009 -1.58,0.443 -3.242,0.578 -4.87,0.378 -1.624,-0.203 -3.226,-0.707 -4.643,-1.519 -1.431,-0.808 -2.683,-1.917 -3.845,-3.092 -1.146,-1.192 -2.207,-2.488 -3.122,-3.858 -0.068,-0.103 -0.206,-0.132 -0.309,-0.064 l -0.023,0.016 -0.001,0.001 c -1.675,1.323 -3.859,2.067 -6.017,2.07 C 11.098,12.743 8.968,11.992 7.119,10.842 5.287,9.67 3.937,7.856 2.848,5.967 1.765,4.052 0.915,2.021 0.28,-0.105 0.259,-0.179 0.182,-0.221 0.107,-0.199 0.054,-0.183 0.017,-0.136 0.01,-0.083 Z"
                 style="fill:#20204a;fill-opacity:1;fill-rule:nonzero;stroke:none"
                 id="path279" />
            </g>
            <g
               id="g281"
               transform="translate(1267.1504,361.3799)">
              <path
                 d="M 0,0 6.069,32.39 5.58,40.97 c 22.06,-4.55 56.699,-7.48 95.64,-7.48 39.059,0 73.78,2.95 95.84,7.52 L 196.569,32.39 203.859,0 Z"
                 style="fill:#a9494a;fill-opacity:1;fill-rule:nonzero;stroke:none"
                 id="path283" />
            </g>
            <g
               id="g285"
               transform="translate(1392.8105,261.6055)">
              <path
                 d="m 0,0 c 1.922,0.037 5.096,0.171 7.673,0.521 55.555,7.541 222.218,30.182 222.218,30.182 30.911,4.198 52.565,32.66 48.367,63.57 -4.199,30.912 -32.657,52.56 -63.571,48.368 L -7.53,112.458 h -33.822 l -222.216,30.183 c -30.915,4.204 -59.371,-17.456 -63.571,-48.368 -4.198,-30.91 17.456,-59.372 48.368,-63.57 0,0 166.44,-24.51 222.216,-30.182 C -54.642,0.326 -50.803,0.071 -48.882,0 -36.67,-0.453 -12.218,-0.238 0,0"
                 style="fill:#a9494a;fill-opacity:1;fill-rule:nonzero;stroke:none"
                 id="path287" />
            </g>
            <g
               id="g289"
               transform="translate(1508.3398,254.4482)">
              <path
                 d="m 0,0 c 0,0 -17.231,13.226 -32.729,16.817 -14.566,3.377 -52.689,1.737 -52.689,1.737 l -23.491,13.219 c -16.615,6.813 -34.975,2.674 -47.127,-9.033 -51.736,21.715 -96.504,65.725 -138.857,89.774 -28.969,16.45 -51.089,19.287 -57.467,20.762 -33.402,7.729 -67.979,-1.12 -81.464,-32.623 -13.488,-31.505 1.12,-67.978 32.623,-81.464 1.621,-0.696 161.501,-69.673 279.014,-70.342 47.274,-5.319 109.551,25.349 109.551,25.349 0,0 21.02,-6.484 29.914,-5.822 3.924,0.292 8.441,10.37 2.996,19.8 C 17.218,-6.53 12.56,-3.196 0,0"
                 style="fill:#ffaf96;fill-opacity:1;fill-rule:nonzero;stroke:none"
                 id="path291" />
            </g>
            <g
               id="g293"
               transform="translate(1525.6201,222.8203)">
              <path
                 d="m 0,0 c -8.9,-0.66 -29.92,5.819 -29.92,5.819 0,0 -62.27,-30.659 -109.55,-25.349 -20.11,0.11 -41.461,2.229 -63.051,5.66 L 3.229,19.38 C 8.31,10.069 3.86,0.29 0,0"
                 style="fill:#20204a;fill-opacity:1;fill-rule:nonzero;stroke:none"
                 id="path295" />
            </g>
            <g
               id="g297"
               transform="translate(1228.6045,254.4482)">
              <path
                 d="m 0,0 c 0,0 17.231,13.226 32.729,16.817 14.565,3.377 52.689,1.737 52.689,1.737 l 23.491,13.219 c 16.615,6.813 34.975,2.674 47.127,-9.033 51.736,21.715 96.504,65.725 138.857,89.774 28.969,16.45 51.088,19.287 57.467,20.762 33.402,7.729 67.979,-1.12 81.464,-32.623 C 447.312,69.148 432.704,32.675 401.201,19.189 399.58,18.493 239.7,-50.484 122.187,-51.153 74.913,-56.472 12.636,-25.804 12.636,-25.804 c 0,0 -21.02,-6.484 -29.914,-5.822 -3.924,0.292 -8.442,10.37 -2.997,19.8 C -17.218,-6.53 -12.56,-3.196 0,0"
                 style="fill:#ffaf96;fill-opacity:1;fill-rule:nonzero;stroke:none"
                 id="path299" />
            </g>
            <g
               id="g301"
               transform="translate(1206.1572,236.8877)">
              <path
                 d="m 0,0 c -0.237,2.636 0.609,5.305 1.979,7.575 1.326,2.331 3.271,4.401 5.474,5.979 2.195,1.623 4.633,2.725 7.046,3.746 2.427,1.001 4.913,1.739 7.386,2.463 h 0.002 l -0.824,-0.4 c 3.09,2.362 6.199,4.473 9.43,6.519 3.224,2.029 6.539,3.931 9.974,5.651 3.437,1.712 6.985,3.266 10.73,4.451 1.863,0.592 3.812,1.094 5.757,1.446 1.933,0.352 3.846,0.619 5.75,0.823 7.613,0.812 15.151,1.049 22.691,1.171 7.542,0.11 15.046,0.062 22.59,-0.445 h 0.003 l -1.529,-0.366 23.67,12.902 0.055,0.029 c 0.069,0.038 0.151,0.076 0.223,0.105 8.309,3.301 17.568,4.111 26.26,2.293 8.698,-1.783 16.812,-6.127 23.073,-12.334 l 0.001,-10e-4 -1.96,0.367 5.059,1.859 c 1.693,0.622 3.383,1.264 5.067,1.92 3.373,1.31 6.687,2.736 10.156,3.919 -3.123,-1.834 -6.321,-3.544 -9.564,-5.156 -3.24,-1.624 -6.501,-3.203 -9.82,-4.68 -0.185,-0.082 -0.393,-0.04 -0.533,0.089 l -0.013,0.013 -0.001,10e-4 c -6.004,5.828 -13.734,9.855 -21.957,11.453 -8.222,1.629 -16.908,0.772 -24.676,-2.406 l 0.041,0.021 -23.524,-13.16 c -0.052,-0.03 -0.11,-0.041 -0.164,-0.039 h -0.003 C 100.375,36.072 92.89,36.193 85.409,36.177 77.932,36.132 70.442,35.97 63.009,35.249 59.293,34.88 55.602,34.331 52.05,33.207 48.489,32.12 45.047,30.656 41.692,29.026 34.998,25.732 28.618,21.764 22.624,17.331 22.592,17.307 22.555,17.29 22.519,17.279 H 22.518 C 20.081,16.627 17.676,15.876 15.309,15.04 12.952,14.188 10.62,13.223 8.526,11.873 6.419,10.553 4.577,8.828 3.208,6.752 1.807,4.69 0.77,2.42 0,0"
                 style="fill:#20204a;fill-opacity:1;fill-rule:nonzero;stroke:none"
                 id="path303" />
            </g>
            <g
               id="g305"
               transform="translate(1462.6797,589.2202)">
              <path
                 d="m 0,0 c -11.8,3.29 -42.83,4.63 -58.439,0.6 -5.371,1.1 -10.93,1.68 -16.63,1.68 h -19.241 -19.24 c -5.7,0 -11.26,-0.58 -16.63,-1.68 -15.61,4.03 -46.639,2.69 -58.44,-0.6 -25.09,-6.99 -52.319,-37.36 -64.47,-51.67 20.88,-6.96 39.87,-18.72 57.13,-32.35 l 5.811,-102.811 c 22.059,-4.569 56.779,-7.519 95.839,-7.519 39.06,0 73.781,2.95 95.84,7.519 L 7.34,-84.02 c 17.261,13.63 36.25,25.39 57.131,32.35 C 52.32,-37.36 25.09,-6.99 0,0"
                 style="fill:#ffc66b;fill-opacity:1;fill-rule:nonzero;stroke:none"
                 id="path307" />
            </g>
          </g>
        </g>
        <g
           id="g309"
           transform="matrix(0.35277777,0,0,-0.35277777,-221.79662,197.29061)">
          <g
             id="g311"
             clip-path="url(#clipPath315)">
            <g
               id="g317"
               transform="translate(1446.5957,595)">
              <path
                 d="m 0,0 c 0,-18.241 -34.248,-33.029 -76.496,-33.029 -42.248,0 -76.497,14.788 -76.497,33.029 z"
                 style="fill:#ffaf96;fill-opacity:1;fill-rule:nonzero;stroke:none"
                 id="path319" />
            </g>
            <g
               id="g321"
               transform="translate(1446.3203,591.6724)">
              <path
                 d="m 0,0 c -0.854,-3.535 -2.881,-6.67 -5.365,-9.263 -2.504,-2.596 -5.407,-4.778 -8.493,-6.623 -6.181,-3.703 -12.956,-6.295 -19.853,-8.296 -13.841,-3.943 -28.273,-5.519 -42.633,-5.518 -14.361,0.013 -28.791,1.618 -42.624,5.586 -6.891,2.016 -13.661,4.626 -19.826,8.356 -3.079,1.858 -5.97,4.058 -8.452,6.675 -2.463,2.613 -4.454,5.776 -5.25,9.325 -0.013,0.057 0.023,0.113 0.08,0.126 0.055,0.012 0.108,-0.021 0.123,-0.074 l 0.003,-0.008 c 0.972,-3.456 3.046,-6.435 5.533,-8.913 2.521,-2.468 5.427,-4.518 8.515,-6.23 6.136,-3.512 12.857,-5.953 19.702,-7.789 6.864,-1.791 13.85,-3.156 20.909,-3.999 3.531,-0.411 7.075,-0.711 10.625,-0.914 3.551,-0.182 7.108,-0.261 10.663,-0.248 7.112,-0.042 14.228,0.312 21.289,1.135 7.063,0.827 14.048,2.191 20.917,3.964 6.849,1.821 13.578,4.242 19.729,7.729 3.095,1.699 6.014,3.731 8.555,6.178 2.509,2.458 4.619,5.409 5.648,8.848 l 0.003,0.008 c 0.016,0.055 0.075,0.087 0.131,0.07 C -0.018,0.109 0.014,0.054 0,0"
                 style="fill:#ffffff;fill-opacity:1;fill-rule:nonzero;stroke:none"
                 id="path323" />
            </g>
            <g
               id="g325"
               transform="translate(1328.6699,453.5986)">
              <path
                 d="m 0,0 c 6.708,-2.745 13.444,-5.017 20.219,-7.088 1.695,-0.512 3.391,-1.005 5.096,-1.475 1.702,-0.477 3.392,-0.982 5.121,-1.358 1.72,-0.397 3.403,-0.929 5.128,-1.299 l 5.17,-1.132 c 1.716,-0.407 3.458,-0.7 5.187,-1.056 l 2.599,-0.514 c 0.87,-0.145 1.747,-0.255 2.615,-0.42 l 5.23,-0.912 c 1.757,-0.207 3.511,-0.46 5.268,-0.73 l 2.639,-0.394 c 0.881,-0.132 1.768,-0.178 2.651,-0.305 l 5.321,-0.652 c 1.778,-0.313 3.565,-0.345 5.357,-0.581 l 2.693,-0.311 2.709,-0.382 0.035,-0.005 c 0.093,-0.013 0.157,-0.099 0.144,-0.191 -0.012,-0.083 -0.082,-0.143 -0.163,-0.145 l -5.4,-0.129 -2.701,-0.065 -1.35,-0.032 -1.35,0.039 -5.402,0.158 c -0.899,0.037 -1.801,0.028 -2.699,0.102 l -2.693,0.218 -5.387,0.438 -5.36,0.702 -2.679,0.36 -2.661,0.478 c -1.771,0.334 -3.555,0.605 -5.316,0.992 -7.046,1.531 -13.979,3.569 -20.736,6.076 -6.741,2.54 -13.351,5.488 -19.475,9.329 -0.08,0.05 -0.103,0.153 -0.054,0.232 0.045,0.071 0.133,0.097 0.207,0.067 z"
                 style="fill:#20204a;fill-opacity:1;fill-rule:nonzero;stroke:none"
                 id="path327" />
            </g>
          </g>
        </g>
        <g
           id="g329"
           transform="matrix(0.35277777,0,0,-0.35277777,-221.79662,197.29061)">
          <g
             id="g331"
             clip-path="url(#clipPath335)">
            <g
               id="g337"
               transform="translate(1520.8037,535.0967)">
              <path
                 d="m 0,0 c -4.328,-2.467 -8.567,-4.963 -12.751,-7.503 -4.151,-2.605 -8.237,-5.26 -12.266,-7.987 -4.037,-2.717 -7.955,-5.59 -11.968,-8.331 -3.992,-2.775 -8.035,-5.486 -12.269,-8.012 l 0.933,1.794 -4.063,-31.075 -0.002,-0.013 c -0.011,-0.089 -0.093,-0.151 -0.181,-0.14 -0.085,0.011 -0.147,0.087 -0.141,0.171 l 1.926,31.197 h 10e-4 c 7.731,6.125 15.812,11.807 24.228,16.954 8.421,5.133 17.239,9.646 26.435,13.249 C -0.034,0.336 0.06,0.295 0.092,0.212 0.121,0.136 0.09,0.052 0.021,0.013 Z"
                 style="fill:#20204a;fill-opacity:1;fill-rule:nonzero;stroke:none"
                 id="path339" />
            </g>
            <g
               id="g341"
               transform="translate(1216.0537,535.4004)">
              <path
                 d="m 0,0 c 4.873,-1.09 9.655,-2.607 14.299,-4.466 4.678,-1.793 9.226,-3.92 13.642,-6.288 4.408,-2.379 8.745,-4.915 12.807,-7.836 4.085,-2.888 7.94,-6.091 11.444,-9.68 l 0.254,-0.229 c 0.457,-0.413 0.686,-0.993 0.679,-1.565 l -0.534,-31.335 v -0.013 c -0.002,-0.09 -0.075,-0.161 -0.165,-0.159 -0.086,10e-4 -0.155,0.069 -0.159,0.153 l -1.602,31.215 h -10e-4 c -7.745,6.102 -15.783,11.857 -24.259,16.904 -8.464,5.057 -17.314,9.485 -26.522,12.995 -0.083,0.033 -0.125,0.125 -0.093,0.209 0.028,0.075 0.108,0.117 0.186,0.1 z"
                 style="fill:#20204a;fill-opacity:1;fill-rule:nonzero;stroke:none"
                 id="path343" />
            </g>
            <g
               id="g345"
               transform="translate(1397.7637,584.6943)">
              <path
                 d="m 0,0 h -55.329 l 2.033,28.958 h 51.263 z"
                 style="fill:#ffaf96;fill-opacity:1;fill-rule:nonzero;stroke:none"
                 id="path347" />
            </g>
          </g>
        </g>
        <g
           id="g349"
           transform="matrix(0.35277777,0,0,-0.35277777,-221.79662,197.29061)">
          <g
             id="g351"
             clip-path="url(#clipPath355)">
            <g
               id="g357"
               transform="translate(1401.1299,601.1846)">
              <path
                 d="m 0,0 c -8.921,-5.906 -19.595,-9.352 -31.038,-9.352 -11.443,0 -22.117,3.446 -31.039,9.352 l 1.292,37.714 h 59.524 z"
                 style="fill:#20204a;fill-opacity:1;fill-rule:nonzero;stroke:none"
                 id="path359" />
            </g>
          </g>
        </g>
        <g
           id="g361"
           transform="matrix(0.35277777,0,0,-0.35277777,-221.79662,197.29061)">
          <g
             id="g363"
             clip-path="url(#clipPath367)">
            <g
               id="g369"
               transform="translate(1289.2998,662.0161)">
              <path
                 d="m 0,0 c 9.139,-9.755 23.511,-11.14 32.101,-3.094 8.59,8.048 8.145,22.479 -0.994,32.235 -9.138,9.755 -23.509,11.14 -32.1,3.092 C -9.583,24.187 -9.138,9.755 0,0"
                 style="fill:#ffaf96;fill-opacity:1;fill-rule:nonzero;stroke:none"
                 id="path371" />
            </g>
            <g
               id="g373"
               transform="translate(1293.6025,686.5879)">
              <path
                 d="M 0,0 C 0,0 19.083,1.871 21.589,-17.961 Z"
                 style="fill:#20204a;fill-opacity:1;fill-rule:nonzero;stroke:none"
                 id="path375" />
            </g>
            <g
               id="g377"
               transform="translate(1450.8984,662.0161)">
              <path
                 d="m 0,0 c -9.139,-9.755 -23.511,-11.14 -32.101,-3.094 -8.589,8.048 -8.145,22.479 0.994,32.235 9.138,9.755 23.509,11.14 32.1,3.092 C 9.583,24.187 9.139,9.755 0,0"
                 style="fill:#ffaf96;fill-opacity:1;fill-rule:nonzero;stroke:none"
                 id="path379" />
            </g>
            <g
               id="g381"
               transform="translate(1446.5957,686.5879)">
              <path
                 d="M 0,0 C 0,0 -19.083,1.871 -21.588,-17.961 Z"
                 style="fill:#20204a;fill-opacity:1;fill-rule:nonzero;stroke:none"
                 id="path383" />
            </g>
            <g
               id="g385"
               transform="translate(1370.0996,602.5024)">
              <path
                 d="m 0,0 h -0.001 c -31.145,0 -56.628,25.483 -56.628,56.628 v 48.205 c 0,31.146 25.483,56.629 56.628,56.629 H 0 c 31.146,0 56.628,-25.483 56.628,-56.629 V 56.628 C 56.628,25.483 31.146,0 0,0"
                 style="fill:#ffaf96;fill-opacity:1;fill-rule:nonzero;stroke:none"
                 id="path387" />
            </g>
            <g
               id="g389"
               transform="translate(1376.6416,686.6118)">
              <path
                 d="m 0,0 c 0.458,-1.693 0.889,-3.281 1.272,-4.812 0.414,-1.528 0.85,-2.983 1.312,-4.368 0.546,-1.359 1.068,-2.642 1.73,-3.815 0.68,-1.156 1.464,-2.172 2.371,-3.162 l 0.4,-0.437 c 0.787,-0.86 0.728,-2.195 -0.131,-2.982 -0.012,-0.01 -0.031,-0.028 -0.043,-0.038 -0.588,-0.51 -1.217,-0.977 -1.857,-1.433 l -0.952,-0.694 -1,-0.645 c -0.655,-0.442 -1.36,-0.834 -2.063,-1.228 -0.716,-0.382 -1.446,-0.748 -2.235,-1.056 l -0.053,-0.021 c -0.071,-0.027 -0.151,0.008 -0.179,0.079 -0.02,0.051 -0.007,0.108 0.029,0.145 2.138,2.248 4.32,4.454 6.501,6.661 l 0.024,-0.379 c -1.299,1.053 -2.437,2.305 -3.292,3.747 -0.815,1.458 -1.396,3.029 -1.792,4.639 -0.726,3.236 -0.832,6.582 -0.325,9.845 0.011,0.075 0.081,0.126 0.156,0.115 0.055,-0.009 0.097,-0.049 0.11,-0.1 z"
                 style="fill:#20204a;fill-opacity:1;fill-rule:nonzero;stroke:none"
                 id="path391" />
            </g>
            <g
               id="g393"
               transform="translate(1386.2119,649.1016)">
              <path
                 d="m 0,0 c -2.623,-2.201 -5.81,-3.741 -9.184,-4.419 -3.368,-0.698 -6.907,-0.554 -10.221,0.391 -3.305,0.979 -6.371,2.753 -8.841,5.146 -2.485,2.38 -4.352,5.388 -5.387,8.652 -0.026,0.083 0.02,0.172 0.103,0.199 0.065,0.02 0.134,-0.003 0.174,-0.054 l 0.031,-0.041 c 2.166,-2.813 4.396,-5.084 6.863,-6.89 2.467,-1.797 5.146,-3.06 7.963,-3.89 2.826,-0.799 5.762,-1.172 8.807,-0.973 3.048,0.204 6.146,0.923 9.488,2.132 l 0.048,0.018 C -0.074,0.3 0.017,0.258 0.047,0.175 0.07,0.111 0.049,0.042 0,0"
                 style="fill:#20204a;fill-opacity:1;fill-rule:nonzero;stroke:none"
                 id="path395" />
            </g>
            <g
               id="g397"
               transform="translate(1356.0234,689.4912)">
              <path
                 d="m 0,0 v -2.874 c 0,-4.799 -3.908,-8.708 -8.707,-8.708 -4.799,0 -8.707,3.909 -8.707,8.708"
                 style="fill:none;stroke:#20204a;stroke-width:3.409;stroke-linecap:round;stroke-linejoin:round;stroke-miterlimit:10;stroke-dasharray:none;stroke-opacity:1"
                 id="path399" />
            </g>
            <g
               id="g401"
               transform="translate(1384.1748,689.4912)">
              <path
                 d="m 0,0 v -2.874 c 0,-4.799 3.908,-8.708 8.707,-8.708 4.799,0 8.708,3.909 8.708,8.708"
                 style="fill:none;stroke:#20204a;stroke-width:3.409;stroke-linecap:round;stroke-linejoin:round;stroke-miterlimit:10;stroke-dasharray:none;stroke-opacity:1"
                 id="path403" />
            </g>
            <g
               id="g405"
               transform="translate(1415.9658,753.3872)">
              <path
                 d="m 0,0 c 2.133,3.225 3.932,6.762 2.714,9.157 -3.315,6.513 -30.837,8.769 -49.259,6.835 -17.147,-1.8 -30.614,-7.177 -40.831,-18.202 -9.367,-10.109 -15.111,-23.618 -15.111,-38.408 v -26.126 l 22.062,46.27 c 5.349,-11.267 17.852,-13.494 31.329,-12.714 l -4.974,15.625 31.785,-11.788 6.584,8.877 c 0,0 26.469,-46.217 26.469,-46.216 0.128,1.301 4.291,43.664 4.279,56.181 C 15.042,-4.815 6.671,-1.633 0,0"
                 style="fill:#20204a;fill-opacity:1;fill-rule:nonzero;stroke:none"
                 id="path407" />
            </g>
            <g
               id="g409"
               transform="translate(1071.9648,374.4844)">
              <path
                 d="m 0,0 c -4.689,-0.897 -14.507,3.987 -16.404,18.194 -0.654,4.895 4.43,8.88 9.026,10.332 0.179,0.057 3.064,0.625 3.062,0.615 10e-4,0 1.045,8.668 6.819,12.955 6.053,4.453 11.626,0.376 11.626,0.376 0,0 2.202,8.091 6.874,11.049 7.134,4.46 12.422,-0.172 12.422,-0.172 0,0 3.77,5.907 8.497,7.758 2.901,1.136 5.696,1.169 8.238,0.462 v 0.004 C 57.356,60.124 74.285,46.568 74.285,46.568 L 60.588,38.469 c 0,0 0.313,-6.33 -5.442,-9.771 -5.11,-3.056 -9.522,0.923 -9.522,0.923 0,0 -0.186,-12.597 -6.289,-15.572 -9.207,-4.489 -13.275,4.003 -13.275,4.003 0,0 1.583,-12.313 -5.601,-15.115 C 12.201,-0.285 7.501,7.077 7.501,7.077 7.501,7.077 4.501,0.86 0,0"
                 style="fill:#ffaf96;fill-opacity:1;fill-rule:nonzero;stroke:none"
                 id="path411" />
            </g>
            <g
               id="g413"
               transform="translate(1117.4736,403.9902)">
              <path
                 d="m 0,0 c -2.372,0.84 -4.433,2.238 -6.102,3.961 -1.746,1.675 -3.131,3.669 -4.211,5.799 -1.081,2.132 -1.874,4.407 -2.23,6.782 -0.389,2.354 -0.456,4.809 0.274,7.263 l 0.019,0.061 c 0.024,0.083 0.112,0.13 0.194,0.106 0.058,-0.018 0.098,-0.065 0.11,-0.119 0.449,-2.189 1.099,-4.349 1.841,-6.462 0.751,-2.114 1.651,-4.172 2.69,-6.157 C -6.421,9.229 -5.285,7.289 -3.99,5.461 -2.729,3.606 -1.262,1.907 0.231,0.229 0.288,0.165 0.282,0.066 0.218,0.009 0.174,-0.03 0.114,-0.04 0.062,-0.021 Z"
                 style="fill:#20204a;fill-opacity:1;fill-rule:nonzero;stroke:none"
                 id="path415" />
            </g>
            <g
               id="g417"
               transform="translate(1097.918,392.4131)">
              <path
                 d="m 0,0 c -2.471,0.713 -4.698,2.057 -6.473,3.827 -1.864,1.706 -3.32,3.814 -4.395,6.075 -1.08,2.261 -1.81,4.688 -2.021,7.181 -0.248,2.471 -0.103,5.027 0.902,7.456 l 0.023,0.057 c 0.033,0.08 0.125,0.118 0.205,0.085 0.057,-0.024 0.092,-0.077 0.097,-0.134 0.085,-1.142 0.264,-2.289 0.484,-3.42 0.212,-1.134 0.476,-2.258 0.782,-3.37 0.612,-2.224 1.442,-4.386 2.459,-6.45 C -7.478,10.25 -6.883,9.262 -6.334,8.25 -5.701,7.289 -5.128,6.285 -4.404,5.386 -3.062,3.509 -1.44,1.859 0.213,0.245 0.275,0.185 0.276,0.086 0.216,0.023 0.174,-0.02 0.114,-0.033 0.061,-0.018 Z"
                 style="fill:#20204a;fill-opacity:1;fill-rule:nonzero;stroke:none"
                 id="path419" />
            </g>
            <g
               id="g421"
               transform="translate(1079.373,381.4277)">
              <path
                 d="m 0,0 c -2.451,0.319 -4.521,1.787 -6.148,3.414 -1.691,1.632 -2.915,3.572 -3.882,5.585 -0.96,2.022 -1.644,4.143 -1.967,6.349 -0.353,2.191 -0.451,4.451 0.115,6.809 l 0.017,0.072 c 0.02,0.083 0.103,0.134 0.186,0.114 0.056,-0.014 0.097,-0.056 0.113,-0.107 0.593,-2.025 1.281,-4.029 1.998,-6.014 0.729,-1.982 1.542,-3.934 2.471,-5.825 C -6.202,8.492 -5.223,6.618 -4.023,4.894 -2.822,3.181 -1.487,1.535 0.185,0.268 0.253,0.216 0.267,0.118 0.215,0.051 0.18,0.005 0.125,-0.017 0.072,-0.01 Z"
                 style="fill:#20204a;fill-opacity:1;fill-rule:nonzero;stroke:none"
                 id="path423" />
            </g>
            <g
               id="g425"
               transform="translate(1130.1738,425.6631)">
              <path
                 d="M 0,0 C 1.767,-1.317 2.892,-3.006 3.776,-4.799 4.629,-6.604 5.152,-8.572 5.277,-10.638 5.393,-12.694 5.109,-14.895 4.122,-16.93 3.17,-18.937 1.3,-20.761 -0.917,-21.044 l -0.084,-0.011 c -0.083,-0.01 -0.159,0.048 -0.17,0.131 -0.007,0.052 0.015,0.102 0.05,0.134 1.363,1.196 2.289,2.813 2.74,4.559 0.468,1.747 0.535,3.587 0.414,5.401 -0.097,1.82 -0.378,3.637 -0.791,5.423 -0.426,1.781 -0.929,3.556 -1.543,5.283 -0.028,0.079 0.014,0.166 0.093,0.194 0.05,0.018 0.103,0.009 0.142,-0.02 z"
                 style="fill:#20204a;fill-opacity:1;fill-rule:nonzero;stroke:none"
                 id="path427" />
            </g>
            <g
               id="g429"
               transform="translate(1664.7754,374.4844)">
              <path
                 d="m 0,0 c 4.689,-0.897 14.506,3.987 16.404,18.194 0.654,4.895 -4.43,8.88 -9.026,10.332 -0.179,0.057 -3.064,0.625 -3.063,0.615 0,0 -1.044,8.668 -6.818,12.955 -6.054,4.453 -11.626,0.376 -11.626,0.376 0,0 -2.202,8.091 -6.874,11.049 -7.134,4.46 -12.422,-0.172 -12.422,-0.172 0,0 -3.77,5.907 -8.497,7.758 -2.901,1.136 -5.697,1.169 -8.238,0.462 v 0.004 C -57.356,60.124 -74.285,46.568 -74.285,46.568 l 13.697,-8.099 c 0,0 -0.313,-6.33 5.441,-9.771 5.111,-3.056 9.522,0.923 9.522,0.923 0,0 0.187,-12.597 6.289,-15.572 9.208,-4.489 13.275,4.003 13.275,4.003 0,0 -1.582,-12.313 5.602,-15.115 8.258,-3.222 12.958,4.14 12.958,4.14 0,0 2.999,-6.217 7.501,-7.077"
                 style="fill:#ffaf96;fill-opacity:1;fill-rule:nonzero;stroke:none"
                 id="path431" />
            </g>
            <g
               id="g433"
               transform="translate(1619.0352,404.2197)">
              <path
                 d="m 0,0 c 1.492,1.678 2.96,3.377 4.222,5.231 1.295,1.829 2.43,3.768 3.424,5.774 1.039,1.984 1.94,4.043 2.69,6.156 0.741,2.113 1.393,4.274 1.842,6.462 0.017,0.085 0.099,0.14 0.184,0.122 0.059,-0.012 0.103,-0.055 0.119,-0.108 l 0.018,-0.062 c 0.73,-2.454 0.664,-4.909 0.275,-7.263 C 12.418,13.938 11.624,11.662 10.543,9.53 9.465,7.4 8.079,5.406 6.333,3.731 4.663,2.009 2.604,0.61 0.231,-0.229 L 0.169,-0.251 C 0.088,-0.28 -0.002,-0.237 -0.03,-0.156 -0.05,-0.101 -0.036,-0.041 0,0"
                 style="fill:#20204a;fill-opacity:1;fill-rule:nonzero;stroke:none"
                 id="path435" />
            </g>
            <g
               id="g437"
               transform="translate(1638.6084,392.6582)">
              <path
                 d="m 0,0 c 1.653,1.614 3.275,3.264 4.618,5.141 0.724,0.899 1.297,1.903 1.929,2.864 0.549,1.012 1.143,2 1.603,3.057 1.017,2.064 1.847,4.226 2.46,6.45 0.306,1.112 0.57,2.236 0.781,3.37 0.221,1.131 0.4,2.278 0.485,3.42 0.006,0.087 0.082,0.151 0.168,0.145 0.061,-0.005 0.111,-0.044 0.134,-0.096 l 0.023,-0.057 C 13.205,21.865 13.35,19.309 13.103,16.838 12.892,14.345 12.162,11.918 11.082,9.657 10.007,7.396 8.551,5.288 6.687,3.582 4.912,1.812 2.685,0.468 0.213,-0.245 L 0.153,-0.263 C 0.07,-0.287 -0.017,-0.238 -0.041,-0.155 -0.058,-0.098 -0.04,-0.039 0,0"
                 style="fill:#20204a;fill-opacity:1;fill-rule:nonzero;stroke:none"
                 id="path439" />
            </g>
            <g
               id="g441"
               transform="translate(1657.1816,381.6953)">
              <path
                 d="m 0,0 c 1.673,1.268 3.008,2.913 4.209,4.626 1.199,1.725 2.178,3.599 3.072,5.504 0.931,1.891 1.743,3.843 2.473,5.824 0.717,1.985 1.404,3.989 1.998,6.015 0.023,0.082 0.109,0.129 0.191,0.104 0.055,-0.015 0.094,-0.059 0.107,-0.111 l 0.017,-0.072 c 0.567,-2.359 0.468,-4.619 0.116,-6.81 C 11.859,12.874 11.176,10.753 10.216,8.731 9.248,6.719 8.023,4.778 6.334,3.146 4.707,1.52 2.636,0.052 0.186,-0.268 L 0.113,-0.277 C 0.029,-0.288 -0.049,-0.229 -0.06,-0.144 -0.067,-0.087 -0.042,-0.033 0,0"
                 style="fill:#20204a;fill-opacity:1;fill-rule:nonzero;stroke:none"
                 id="path443" />
            </g>
            <g
               id="g445"
               transform="translate(1606.8672,425.5391)">
              <path
                 d="m 0,0 c -0.615,-1.727 -1.117,-3.502 -1.543,-5.283 -0.413,-1.786 -0.693,-3.603 -0.791,-5.423 -0.121,-1.814 -0.055,-3.654 0.414,-5.401 0.451,-1.746 1.377,-3.363 2.739,-4.559 0.064,-0.056 0.07,-0.151 0.015,-0.215 -0.035,-0.039 -0.085,-0.056 -0.133,-0.05 l -0.085,0.011 c -2.218,0.283 -4.088,2.108 -5.039,4.114 -0.987,2.035 -1.27,4.236 -1.156,6.292 0.125,2.066 0.649,4.034 1.502,5.839 0.885,1.793 2.01,3.482 3.776,4.799 l 0.066,0.049 C -0.168,0.224 -0.072,0.21 -0.021,0.142 0.01,0.1 0.016,0.046 0,0"
                 style="fill:#20204a;fill-opacity:1;fill-rule:nonzero;stroke:none"
                 id="path447" />
            </g>
          </g>
        </g>
      </g>
    </g>
  </g>
</svg>
